<svg width="296.314" height="131.794" viewBox="0 0 78.4 34.871" xmlns="http://www.w3.org/2000/svg"><path style="opacity:1;fill:#000;fill-opacity:1;stroke:#fff;stroke-width:2.31874;stroke-linecap:square;stroke-linejoin:round;stroke-dasharray:none;paint-order:markers stroke fill" d="M56.672 158.297a5.636 5.636 0 0 1-5.636 5.637 5.636 5.636 0 0 1-5.637-5.637 5.636 5.636 0 0 1 5.637-5.636 5.636 5.636 0 0 1 5.636 5.636z" transform="matrix(-1.72507 0 0 1.72507 154.717 -255.448)"/><path style="opacity:1;fill:#fff;fill-opacity:1;stroke:#fff;stroke-width:1.54609;stroke-linecap:square;stroke-linejoin:round;stroke-dasharray:none;stroke-opacity:1;paint-order:markers stroke fill" d="M54.794 158.297a3.758 3.758 0 0 1-3.758 3.759 3.758 3.758 0 0 1-3.759-3.759 3.758 3.758 0 0 1 3.759-3.758 3.758 3.758 0 0 1 3.758 3.758z" transform="matrix(-1.72507 0 0 1.72507 154.717 -255.448)"/><path style="opacity:1;fill:#000;fill-opacity:1;stroke:#fff;stroke-width:2.31874;stroke-linecap:square;stroke-linejoin:round;stroke-dasharray:none;paint-order:markers stroke fill" d="M56.672 158.297a5.636 5.636 0 0 1-5.636 5.637 5.636 5.636 0 0 1-5.637-5.637 5.636 5.636 0 0 1 5.637-5.636 5.636 5.636 0 0 1 5.636 5.636z" transform="matrix(-1.72507 0 0 1.72507 142.26 -255.448)"/><path style="opacity:1;fill:#fff;fill-opacity:1;stroke:#fff;stroke-width:1.54609;stroke-linecap:square;stroke-linejoin:round;stroke-dasharray:none;stroke-opacity:1;paint-order:markers stroke fill" d="M54.794 158.297a3.758 3.758 0 0 1-3.758 3.759 3.758 3.758 0 0 1-3.759-3.759 3.758 3.758 0 0 1 3.759-3.758 3.758 3.758 0 0 1 3.758 3.758z" transform="matrix(-1.72507 0 0 1.72507 142.26 -255.448)"/><path style="opacity:1;fill:#000;fill-opacity:1;stroke:#fff;stroke-width:2.31874;stroke-linecap:square;stroke-linejoin:round;stroke-dasharray:none;paint-order:markers stroke fill" d="M56.672 158.297a5.636 5.636 0 0 1-5.636 5.637 5.636 5.636 0 0 1-5.637-5.637 5.636 5.636 0 0 1 5.637-5.636 5.636 5.636 0 0 1 5.636 5.636z" transform="translate(-76.317 -255.448) scale(1.72507)"/><path style="opacity:1;fill:#fff;fill-opacity:1;stroke:#fff;stroke-width:1.54609;stroke-linecap:square;stroke-linejoin:round;stroke-dasharray:none;stroke-opacity:1;paint-order:markers stroke fill" d="M54.794 158.297a3.758 3.758 0 0 1-3.758 3.759 3.758 3.758 0 0 1-3.759-3.759 3.758 3.758 0 0 1 3.759-3.758 3.758 3.758 0 0 1 3.758 3.758z" transform="translate(-76.317 -255.448) scale(1.72507)"/><path style="opacity:1;fill:#000;fill-opacity:1;stroke:#fff;stroke-width:2.31874;stroke-linecap:square;stroke-linejoin:round;stroke-dasharray:none;paint-order:markers stroke fill" d="M56.672 158.297a5.636 5.636 0 0 1-5.636 5.637 5.636 5.636 0 0 1-5.637-5.637 5.636 5.636 0 0 1 5.637-5.636 5.636 5.636 0 0 1 5.636 5.636z" transform="translate(-63.86 -255.448) scale(1.72507)"/><path style="opacity:1;fill:#fff;fill-opacity:1;stroke:#fff;stroke-width:1.54609;stroke-linecap:square;stroke-linejoin:round;stroke-dasharray:none;stroke-opacity:1;paint-order:markers stroke fill" d="M54.794 158.297a3.758 3.758 0 0 1-3.758 3.759 3.758 3.758 0 0 1-3.759-3.759 3.758 3.758 0 0 1 3.759-3.758 3.758 3.758 0 0 1 3.758 3.758z" transform="translate(-63.86 -255.448) scale(1.72507)"/><path style="stroke:#fff;stroke-width:2.31874;stroke-linecap:round;stroke-linejoin:round;paint-order:markers stroke fill" d="M58.481 149.24h4.817a2.259 2.259 45 0 1 2.259 2.258v13.377a2.259 2.259 135 0 1-2.26 2.26h-4.816a2.259 2.259 45 0 1-2.259-2.26v-13.377a2.259 2.259 135 0 1 2.26-2.259z" transform="translate(-65.839 -255.448) scale(1.72507)"/></svg>