<?xml version="1.0" encoding="UTF-8" standalone="no"?>
<svg
   width="2716.3081"
   height="744.01947"
   viewBox="0 0 2716.3081 744.01947"
   fill="none"
   version="1.1"
   id="svg5"
   sodipodi:docname="logo_prepper_right.svg"
   inkscape:version="1.3.2 (091e20e, 2023-11-25, custom)"
   xmlns:inkscape="http://www.inkscape.org/namespaces/inkscape"
   xmlns:sodipodi="http://sodipodi.sourceforge.net/DTD/sodipodi-0.dtd"
   xmlns="http://www.w3.org/2000/svg"
   xmlns:svg="http://www.w3.org/2000/svg">
  <defs
     id="defs5" />
  <sodipodi:namedview
     id="namedview5"
     pagecolor="#ffffff"
     bordercolor="#000000"
     borderopacity="0.25"
     inkscape:showpageshadow="2"
     inkscape:pageopacity="0.0"
     inkscape:pagecheckerboard="0"
     inkscape:deskcolor="#d1d1d1"
     showgrid="false"
     inkscape:zoom="0.19612658"
     inkscape:cx="1032.4965"
     inkscape:cy="104.52434"
     inkscape:window-width="1920"
     inkscape:window-height="1017"
     inkscape:window-x="1912"
     inkscape:window-y="-8"
     inkscape:window-maximized="1"
     inkscape:current-layer="svg5" />
  <g
     id="g5"
     inkscape:label="Icon"
     transform="matrix(0.74401949,0,0,0.74401949,-424.09109,8.0669571e-7)">
    <path
       d="m 665.431,482.411 c 0,-113.184 15.057,-202.478 44.913,-267.182 -34.423,11.423 -64.797,27.881 -89.317,55.798 -45.305,51.58 -59.904,132.299 -45.935,254.027 20.312,177.015 88.562,327.845 178.112,393.628 1.017,0.748 2.043,1.45 3.065,2.174 -10.876,-17.657 -20.798,-36.83 -29.677,-57.543 C 686.01,768.65 665.431,640.494 665.431,482.411 Z"
       fill="#00b489"
       id="path1" />
    <path
       d="m 1381.4,271.027 c -26.6,-30.279 -60.09,-47.075 -98.15,-58.59 8.39,17.374 15.69,36.54 21.86,57.493 17,57.806 25.63,129.295 25.63,212.481 0,152.568 -23.06,284.749 -66.67,382.253 -11.28,25.211 -23.92,48.132 -37.86,68.724 7.77,-4.259 15.45,-9.151 23.01,-14.706 89.55,-65.781 157.8,-216.611 178.11,-393.628 13.97,-121.73 -0.63,-202.447 -45.93,-254.027 z"
       fill="#00b489"
       id="path2" />
    <path
       d="m 880.412,63.2259 c 28.869,-2.174 49.514,3.5848 63.118,17.6021 7.285,7.507 13.101,17.8317 17.464,30.889 1.578,0.738 3.149,1.456 4.741,2.243 18.881,9.338 40.905,9.852 61.155,1.595 C 1019.84,82.0151 1007.14,56.2212 988.589,37.1024 961.595,9.28162 923.612,-2.99727 875.697,0.61694 858.407,1.91978 845.448,16.9907 846.75,34.2789 c 1.301,17.2901 16.38,30.2793 33.662,28.947 z"
       fill="#462255"
       id="path3" />
    <path
       d="m 1244.87,287.652 c -16.47,-55.991 -41.35,-94.774 -73.95,-115.27 -23.11,-14.536 -61.35,-26.722 -112.27,-2.249 -38.99,18.736 -83.001,18.776 -120.748,0.106 -51.531,-25.484 -90.006,-13.658 -113.208,0.75 -44.012,27.334 -96.475,103.55 -96.475,311.422 0,149.528 18.869,269.36 56.083,356.162 21.514,50.185 49.417,89.307 82.932,116.283 37.22,29.955 81.243,45.144 130.849,45.144 62.337,0 149.147,-27.929 208.667,-160.978 40.03,-89.497 61.2,-212.812 61.2,-356.613 0,-77.186 -7.77,-142.71 -23.08,-194.757 z m -215.39,483.621 c 0,17.337 -14.06,31.393 -31.397,31.393 -17.337,0 -31.393,-14.056 -31.393,-31.393 V 397.824 c 0,-17.337 14.056,-31.393 31.393,-31.393 17.337,0 31.397,14.056 31.397,31.393 z"
       fill="#00b489"
       id="path4" />
  </g>
  <path
     d="M 751.66818,672.00974 V 392.00975 h 128 c 25.6,0 47.6,4.13 66,12.4 18.667,8.27 33.067,20.27 43.2,36 10.133,15.47 15.20002,33.87 15.20002,55.2 0,21.07 -5.06702,39.33 -15.20002,54.8 -10.133,15.47 -24.533,27.47 -43.2,36 -18.4,8.27 -40.4,12.4 -66,12.4 h -84 l 35.2,-34.4 v 107.59999 z m 79.2,-99.19999 -35.2,-36.4 h 79.2 c 16.533,0 28.8,-3.6 36.8,-10.8 8.267,-7.2 12.4,-17.2 12.4,-30 0,-13.07 -4.133,-23.2 -12.4,-30.4 -8,-7.2 -20.267,-10.8 -36.8,-10.8 h -79.2 l 35.2,-36.4 z m 211.81602,99.19999 V 392.00975 h 128 c 25.6,0 47.6,4.13 66,12.4 18.666,8.27 33.066,20.27 43.2,36 10.133,15.47 15.2,33.87 15.2,55.2 0,21.07 -5.067,39.33 -15.2,54.8 -10.134,15.2 -24.534,26.93 -43.2,35.2 -18.4,8 -40.4,12 -66,12 h -84 l 35.2,-33.2 v 107.59999 z m 173.2,0 -69.6,-101.99999 h 84.4 l 70,101.99999 z m -94,-99.19999 -35.2,-36.4 h 79.2 c 16.533,0 28.8,-3.6 36.8,-10.8 8.266,-7.2 12.4,-17.2 12.4,-30 0,-13.07 -4.134,-23.2 -12.4,-30.4 -8,-7.2 -20.267,-10.8 -36.8,-10.8 h -79.2 l 35.2,-36.4 z m 289.693,-72.4 h 130 v 59.2 h -130 z m 5.6,110.4 h 146.4 v 61.19999 h -224.8 V 392.00975 h 219.6 v 61.2 h -141.2 z m 190.35,61.19999 V 392.00975 h 128.001 c 25.6,0 47.6,4.13 66,12.4 18.67,8.27 33.07,20.27 43.2,36 10.13,15.47 15.2,33.87 15.2,55.2 0,21.07 -5.07,39.33 -15.2,54.8 -10.13,15.47 -24.53,27.47 -43.2,36 -18.4,8.27 -40.4,12.4 -66,12.4 h -84.001 l 35.2,-34.4 v 107.59999 z m 79.2,-99.19999 -35.2,-36.4 h 79.201 c 16.53,0 28.8,-3.6 36.8,-10.8 8.27,-7.2 12.4,-17.2 12.4,-30 0,-13.07 -4.13,-23.2 -12.4,-30.4 -8,-7.2 -20.27,-10.8 -36.8,-10.8 h -79.201 l 35.2,-36.4 z m 211.821,99.19999 V 392.00975 h 128 c 25.6,0 47.6,4.13 66,12.4 18.66,8.27 33.06,20.27 43.2,36 10.13,15.47 15.2,33.87 15.2,55.2 0,21.07 -5.07,39.33 -15.2,54.8 -10.14,15.47 -24.54,27.47 -43.2,36 -18.4,8.27 -40.4,12.4 -66,12.4 h -84 l 35.2,-34.4 v 107.59999 z m 79.2,-99.19999 -35.2,-36.4 h 79.2 c 16.53,0 28.8,-3.6 36.8,-10.8 8.26,-7.2 12.4,-17.2 12.4,-30 0,-13.07 -4.14,-23.2 -12.4,-30.4 -8,-7.2 -20.27,-10.8 -36.8,-10.8 h -79.2 l 35.2,-36.4 z m 284.61,-72.4 h 130 v 59.2 h -130 z m 5.6,110.4 h 146.4 v 61.19999 h -224.8 V 392.00975 h 219.6 v 61.2 h -141.2 z m 190.35,61.19999 V 392.00975 h 128 c 25.6,0 47.6,4.13 66,12.4 18.67,8.27 33.07,20.27 43.2,36 10.13,15.47 15.2,33.87 15.2,55.2 0,21.07 -5.07,39.33 -15.2,54.8 -10.13,15.2 -24.53,26.93 -43.2,35.2 -18.4,8 -40.4,12 -66,12 h -84 l 35.2,-33.2 v 107.59999 z m 173.2,0 -69.6,-101.99999 h 84.4 l 70,101.99999 z m -94,-99.19999 -35.2,-36.4 h 79.2 c 16.53,0 28.8,-3.6 36.8,-10.8 8.27,-7.2 12.4,-17.2 12.4,-30 0,-13.07 -4.13,-23.2 -12.4,-30.4 -8,-7.2 -20.27,-10.8 -36.8,-10.8 h -79.2 l 35.2,-36.4 z"
     fill="#462255"
     id="path5"
     inkscape:label="Text" />
</svg>
