<svg width="301" height="362" viewBox="0 0 301 362" fill="none" xmlns="http://www.w3.org/2000/svg">
<path d="M272.588 101.408C249.286 91.695 218.198 95.5811 218.198 95.5811C225.475 94.4205 231.064 93.0459 235.274 91.5333C244.273 89.5736 254.771 87.5806 261.368 87.319C261.368 87.319 246.932 76.5503 237.029 70.0149C235.792 69.1682 234.527 68.3596 233.238 67.6034C231.659 66.633 230.303 65.8672 229.371 65.4677C215.287 58.1855 197.326 56.73 183.718 68.3787C170.124 80.0321 208.98 95.5763 208.98 95.5763C196.351 101.403 187.129 117.908 187.129 117.908C142.465 113.061 136.629 125.68 136.629 125.68C133.713 118.883 122.06 116.942 100.703 110.145C79.3415 103.344 93.0831 89.7496 93.0831 89.7496C112.656 85.8635 124.971 71.2992 124.971 71.2992C126.916 60.6208 120.124 52.8487 91.9605 52.8487C87.8176 52.8487 84.2788 53.2815 81.1538 53.9617C80.9492 54.0093 80.7875 53.9807 80.5735 54.0473C80.426 54.0901 80.2738 54.152 80.1264 54.2043C74.3567 55.6217 70.2614 57.9905 67.417 60.5542C57.8327 66.9042 50.4981 74.8951 50.4981 74.8951C57.1477 76.5598 66.3468 79.8894 73.6004 82.6862C79.489 85.4069 85.1635 87.319 85.1635 87.319C65.2528 80.0368 47.7679 81.0119 24.951 89.7544C2.13408 98.4968 -3.21223 140.739 1.64891 205.309C6.5053 269.892 38.0647 316.506 50.208 326.699C54.7362 330.504 59.7448 331.061 64.2349 330.267H64.2397C64.8057 330.167 65.3479 330.029 65.8949 329.891C69.1293 329.22 76.3497 328.083 80.426 330.267C80.426 330.267 80.6448 329.315 77.886 323.788C62.3466 294.165 50.2127 236.102 50.2127 236.102C79.3463 310.389 93.0355 344.95 107.6 354.658C122.164 364.366 134.888 357.483 150.427 359.909C165.967 362.33 189.559 366.796 205.099 344.945C220.633 323.099 230.351 250.281 230.351 250.281C227.44 279.415 220.148 331.066 220.148 331.066L218.207 336.697C218.207 336.697 225.128 333.277 237.076 332.973C237.828 332.968 238.575 332.968 239.293 332.925C239.464 332.925 239.612 332.906 239.788 332.916L239.593 332.897C260.716 331.594 265.121 315.003 275.989 280.081C289.579 236.378 290.559 219.868 297.841 173.74C305.128 127.626 295.905 111.116 272.588 101.408Z" fill="#009379"/>
<path d="M103.986 95.0906C103.986 95.0906 101.075 100.917 112.724 103.828C124.377 106.744 130.209 109.289 132.392 111.843C134.575 114.397 136.763 110.021 140.036 108.932C143.313 107.838 160.065 106.749 169.535 108.204C178.996 109.66 179.358 109.294 182.278 106.021C185.194 102.744 199.763 99.1004 187.016 95.0954C174.268 91.0904 163.709 77.9815 170.991 56.4964C178.273 35.0113 184.566 29.5461 192.162 27.0014C199.763 24.4519 212.61 12.4322 192.162 6.24404C171.719 0.0463237 156.607 -6.14664 150.143 12.0612C143.679 30.2691 144.773 44.1058 137.125 62.6799C129.476 81.254 121.828 91.0857 103.986 95.0906Z" fill="#49416D"/>
</svg>
