<svg width="1965" height="1480" viewBox="0 0 1965 1480" fill="none" xmlns="http://www.w3.org/2000/svg">
<path d="M646.431 482.411C646.431 369.227 661.488 279.933 691.344 215.229C656.921 226.652 626.547 243.11 602.027 271.027C556.722 322.607 542.123 403.326 556.092 525.054C576.404 702.069 644.654 852.899 734.204 918.682C735.221 919.43 736.247 920.132 737.269 920.856C726.393 903.199 716.471 884.026 707.592 863.313C667.01 768.65 646.431 640.494 646.431 482.411Z" fill="#00B489"/>
<path d="M1362.4 271.027C1335.8 240.748 1302.31 223.952 1264.25 212.437C1272.64 229.811 1279.94 248.977 1286.11 269.93C1303.11 327.736 1311.74 399.225 1311.74 482.411C1311.74 634.979 1288.68 767.16 1245.07 864.664C1233.79 889.875 1221.15 912.796 1207.21 933.388C1214.98 929.129 1222.66 924.237 1230.22 918.682C1319.77 852.901 1388.02 702.071 1408.33 525.054C1422.3 403.324 1407.7 322.607 1362.4 271.027Z" fill="#00B489"/>
<path d="M861.412 63.2259C890.281 61.0519 910.926 66.8107 924.53 80.828C931.815 88.335 937.631 98.6596 941.994 111.717C943.572 112.455 945.143 113.173 946.735 113.96C965.616 123.298 987.643 123.812 1007.89 115.555C1000.84 82.0151 988.141 56.2212 969.589 37.1024C942.595 9.28162 904.612 -2.99727 856.697 0.61694C839.407 1.91978 826.448 16.9907 827.75 34.2789C829.051 51.569 844.13 64.5582 861.412 63.2259Z" fill="#462255"/>
<path d="M1225.87 287.652C1209.4 231.661 1184.52 192.878 1151.92 172.382C1128.81 157.846 1090.57 145.66 1039.65 170.133C1000.66 188.869 956.649 188.909 918.902 170.239C867.371 144.755 828.896 156.581 805.694 170.989C761.682 198.323 709.219 274.539 709.219 482.411C709.219 631.939 728.088 751.771 765.302 838.573C786.816 888.758 814.719 927.88 848.234 954.856C885.453 984.811 929.477 1000 979.083 1000C1041.42 1000 1128.23 972.071 1187.75 839.022C1227.78 749.525 1248.95 626.21 1248.95 482.409C1248.95 405.223 1241.18 339.699 1225.87 287.652ZM1010.48 771.273C1010.48 788.61 996.421 802.666 979.083 802.666C961.746 802.666 947.69 788.61 947.69 771.273V397.824C947.69 380.487 961.746 366.431 979.083 366.431C996.421 366.431 1010.48 380.487 1010.48 397.824V771.273Z" fill="#00B489"/>
<path d="M1706.64 1480V1200H1834.64C1860.24 1200 1882.24 1204.13 1900.64 1212.4C1919.31 1220.67 1933.71 1232.67 1943.84 1248.4C1953.97 1263.87 1959.04 1282.27 1959.04 1303.6C1959.04 1324.67 1953.97 1342.93 1943.84 1358.4C1933.71 1373.6 1919.31 1385.33 1900.64 1393.6C1882.24 1401.6 1860.24 1405.6 1834.64 1405.6H1750.64L1785.84 1372.4V1480H1706.64ZM1879.84 1480L1810.24 1378H1894.64L1964.64 1480H1879.84ZM1785.84 1380.8L1750.64 1344.4H1829.84C1846.37 1344.4 1858.64 1340.8 1866.64 1333.6C1874.91 1326.4 1879.04 1316.4 1879.04 1303.6C1879.04 1290.53 1874.91 1280.4 1866.64 1273.2C1858.64 1266 1846.37 1262.4 1829.84 1262.4H1750.64L1785.84 1226V1380.8Z" fill="#462255"/>
<path d="M1510.69 1308.4H1640.69V1367.6H1510.69V1308.4ZM1516.29 1418.8H1662.69V1480H1437.89V1200H1657.49V1261.2H1516.29V1418.8Z" fill="#462255"/>
<path d="M1146.88 1480V1200H1274.88C1300.48 1200 1322.48 1204.13 1340.88 1212.4C1359.54 1220.67 1373.94 1232.67 1384.08 1248.4C1394.21 1263.87 1399.28 1282.27 1399.28 1303.6C1399.28 1324.67 1394.21 1342.93 1384.08 1358.4C1373.94 1373.87 1359.54 1385.87 1340.88 1394.4C1322.48 1402.67 1300.48 1406.8 1274.88 1406.8H1190.88L1226.07 1372.4V1480H1146.88ZM1226.07 1380.8L1190.88 1344.4H1270.07C1286.61 1344.4 1298.88 1340.8 1306.88 1333.6C1315.14 1326.4 1319.28 1316.4 1319.28 1303.6C1319.28 1290.53 1315.14 1280.4 1306.88 1273.2C1298.88 1266 1286.61 1262.4 1270.07 1262.4H1190.88L1226.07 1226V1380.8Z" fill="#462255"/>
<path d="M855.859 1480V1200H983.859C1009.46 1200 1031.46 1204.13 1049.86 1212.4C1068.53 1220.67 1082.93 1232.67 1093.06 1248.4C1103.19 1263.87 1108.26 1282.27 1108.26 1303.6C1108.26 1324.67 1103.19 1342.93 1093.06 1358.4C1082.93 1373.87 1068.53 1385.87 1049.86 1394.4C1031.46 1402.67 1009.46 1406.8 983.859 1406.8H899.859L935.059 1372.4V1480H855.859ZM935.059 1380.8L899.859 1344.4H979.059C995.593 1344.4 1007.86 1340.8 1015.86 1333.6C1024.13 1326.4 1028.26 1316.4 1028.26 1303.6C1028.26 1290.53 1024.13 1280.4 1015.86 1273.2C1007.86 1266 995.593 1262.4 979.059 1262.4H899.859L935.059 1226V1380.8Z" fill="#462255"/>
<path d="M659.909 1308.4H789.909V1367.6H659.909V1308.4ZM665.509 1418.8H811.909V1480H587.109V1200H806.709V1261.2H665.509V1418.8Z" fill="#462255"/>
<path d="M291.016 1480V1200H419.016C444.616 1200 466.616 1204.13 485.016 1212.4C503.682 1220.67 518.082 1232.67 528.216 1248.4C538.349 1263.87 543.416 1282.27 543.416 1303.6C543.416 1324.67 538.349 1342.93 528.216 1358.4C518.082 1373.6 503.682 1385.33 485.016 1393.6C466.616 1401.6 444.616 1405.6 419.016 1405.6H335.016L370.216 1372.4V1480H291.016ZM464.216 1480L394.616 1378H479.016L549.016 1480H464.216ZM370.216 1380.8L335.016 1344.4H414.216C430.749 1344.4 443.016 1340.8 451.016 1333.6C459.282 1326.4 463.416 1316.4 463.416 1303.6C463.416 1290.53 459.282 1280.4 451.016 1273.2C443.016 1266 430.749 1262.4 414.216 1262.4H335.016L370.216 1226V1380.8Z" fill="#462255"/>
<path d="M0 1480V1200H128C153.6 1200 175.6 1204.13 194 1212.4C212.667 1220.67 227.067 1232.67 237.2 1248.4C247.333 1263.87 252.4 1282.27 252.4 1303.6C252.4 1324.67 247.333 1342.93 237.2 1358.4C227.067 1373.87 212.667 1385.87 194 1394.4C175.6 1402.67 153.6 1406.8 128 1406.8H44L79.2 1372.4V1480H0ZM79.2 1380.8L44 1344.4H123.2C139.733 1344.4 152 1340.8 160 1333.6C168.267 1326.4 172.4 1316.4 172.4 1303.6C172.4 1290.53 168.267 1280.4 160 1273.2C152 1266 139.733 1262.4 123.2 1262.4H44L79.2 1226V1380.8Z" fill="#462255"/>
</svg>
