<?xml version="1.0" encoding="UTF-8" standalone="no"?>
<svg
   width="2003"
   height="1480"
   viewBox="0 0 2003 1480"
   fill="none"
   version="1.1"
   id="svg5"
   sodipodi:docname="logo_prepper.svg"
   inkscape:version="1.3.2 (091e20e, 2023-11-25, custom)"
   xmlns:inkscape="http://www.inkscape.org/namespaces/inkscape"
   xmlns:sodipodi="http://sodipodi.sourceforge.net/DTD/sodipodi-0.dtd"
   xmlns="http://www.w3.org/2000/svg"
   xmlns:svg="http://www.w3.org/2000/svg">
  <defs
     id="defs5" />
  <sodipodi:namedview
     id="namedview5"
     pagecolor="#ffffff"
     bordercolor="#000000"
     borderopacity="0.25"
     inkscape:showpageshadow="2"
     inkscape:pageopacity="0.0"
     inkscape:pagecheckerboard="0"
     inkscape:deskcolor="#d1d1d1"
     showgrid="false"
     inkscape:zoom="0.27736487"
     inkscape:cx="1072.5944"
     inkscape:cy="740.90134"
     inkscape:window-width="1920"
     inkscape:window-height="1017"
     inkscape:window-x="1912"
     inkscape:window-y="-8"
     inkscape:window-maximized="1"
     inkscape:current-layer="svg5" />
  <path
     d="M665.431 482.411C665.431 369.227 680.488 279.933 710.344 215.229C675.921 226.652 645.547 243.11 621.027 271.027C575.722 322.607 561.123 403.326 575.092 525.054C595.404 702.069 663.654 852.899 753.204 918.682C754.221 919.43 755.247 920.132 756.269 920.856C745.393 903.199 735.471 884.026 726.592 863.313C686.01 768.65 665.431 640.494 665.431 482.411Z"
     fill="#00B489"
     id="path1" />
  <path
     d="M1381.4 271.027C1354.8 240.748 1321.31 223.952 1283.25 212.437C1291.64 229.811 1298.94 248.977 1305.11 269.93C1322.11 327.736 1330.74 399.225 1330.74 482.411C1330.74 634.979 1307.68 767.16 1264.07 864.664C1252.79 889.875 1240.15 912.796 1226.21 933.388C1233.98 929.129 1241.66 924.237 1249.22 918.682C1338.77 852.901 1407.02 702.071 1427.33 525.054C1441.3 403.324 1426.7 322.607 1381.4 271.027Z"
     fill="#00B489"
     id="path2" />
  <path
     d="M880.412 63.2259C909.281 61.0519 929.926 66.8107 943.53 80.828C950.815 88.335 956.631 98.6597 960.994 111.717C962.572 112.455 964.143 113.173 965.735 113.96C984.616 123.298 1006.64 123.812 1026.89 115.555C1019.84 82.0151 1007.14 56.2212 988.589 37.1024C961.595 9.28162 923.612 -2.99727 875.697 0.61694C858.407 1.91978 845.448 16.9907 846.75 34.2789C848.051 51.569 863.13 64.5582 880.412 63.2259Z"
     fill="#462255"
     id="path3" />
  <path
     d="M1244.87 287.652C1228.4 231.661 1203.52 192.878 1170.92 172.382C1147.81 157.846 1109.57 145.66 1058.65 170.133C1019.66 188.869 975.649 188.909 937.902 170.239C886.371 144.755 847.896 156.581 824.694 170.989C780.682 198.323 728.219 274.539 728.219 482.411C728.219 631.939 747.088 751.771 784.302 838.573C805.816 888.758 833.719 927.88 867.234 954.856C904.454 984.811 948.477 1000 998.083 1000C1060.42 1000 1147.23 972.071 1206.75 839.022C1246.78 749.525 1267.95 626.21 1267.95 482.409C1267.95 405.223 1260.18 339.699 1244.87 287.652ZM1029.48 771.273C1029.48 788.61 1015.42 802.666 998.083 802.666C980.746 802.666 966.69 788.61 966.69 771.273V397.824C966.69 380.487 980.746 366.431 998.083 366.431C1015.42 366.431 1029.48 380.487 1029.48 397.824V771.273Z"
     fill="#00B489"
     id="path4" />
  <path
     d="M28 1480V1200H156C181.6 1200 203.6 1204.13 222 1212.4C240.667 1220.67 255.067 1232.67 265.2 1248.4C275.333 1263.87 280.4 1282.27 280.4 1303.6C280.4 1324.67 275.333 1342.93 265.2 1358.4C255.067 1373.87 240.667 1385.87 222 1394.4C203.6 1402.67 181.6 1406.8 156 1406.8H72L107.2 1372.4V1480H28ZM107.2 1380.8L72 1344.4H151.2C167.733 1344.4 180 1340.8 188 1333.6C196.267 1326.4 200.4 1316.4 200.4 1303.6C200.4 1290.53 196.267 1280.4 188 1273.2C180 1266 167.733 1262.4 151.2 1262.4H72L107.2 1226V1380.8ZM319.016 1480V1200H447.016C472.616 1200 494.616 1204.13 513.016 1212.4C531.682 1220.67 546.082 1232.67 556.216 1248.4C566.349 1263.87 571.416 1282.27 571.416 1303.6C571.416 1324.67 566.349 1342.93 556.216 1358.4C546.082 1373.6 531.682 1385.33 513.016 1393.6C494.616 1401.6 472.616 1405.6 447.016 1405.6H363.016L398.216 1372.4V1480H319.016ZM492.216 1480L422.616 1378H507.016L577.016 1480H492.216ZM398.216 1380.8L363.016 1344.4H442.216C458.749 1344.4 471.016 1340.8 479.016 1333.6C487.282 1326.4 491.416 1316.4 491.416 1303.6C491.416 1290.53 487.282 1280.4 479.016 1273.2C471.016 1266 458.749 1262.4 442.216 1262.4H363.016L398.216 1226V1380.8ZM687.909 1308.4H817.909V1367.6H687.909V1308.4ZM693.509 1418.8H839.909V1480H615.109V1200H834.709V1261.2H693.509V1418.8ZM883.859 1480V1200H1011.86C1037.46 1200 1059.46 1204.13 1077.86 1212.4C1096.53 1220.67 1110.93 1232.67 1121.06 1248.4C1131.19 1263.87 1136.26 1282.27 1136.26 1303.6C1136.26 1324.67 1131.19 1342.93 1121.06 1358.4C1110.93 1373.87 1096.53 1385.87 1077.86 1394.4C1059.46 1402.67 1037.46 1406.8 1011.86 1406.8H927.859L963.059 1372.4V1480H883.859ZM963.059 1380.8L927.859 1344.4H1007.06C1023.59 1344.4 1035.86 1340.8 1043.86 1333.6C1052.13 1326.4 1056.26 1316.4 1056.26 1303.6C1056.26 1290.53 1052.13 1280.4 1043.86 1273.2C1035.86 1266 1023.59 1262.4 1007.06 1262.4H927.859L963.059 1226V1380.8ZM1174.88 1480V1200H1302.88C1328.48 1200 1350.48 1204.13 1368.88 1212.4C1387.54 1220.67 1401.94 1232.67 1412.08 1248.4C1422.21 1263.87 1427.28 1282.27 1427.28 1303.6C1427.28 1324.67 1422.21 1342.93 1412.08 1358.4C1401.94 1373.87 1387.54 1385.87 1368.88 1394.4C1350.48 1402.67 1328.48 1406.8 1302.88 1406.8H1218.88L1254.08 1372.4V1480H1174.88ZM1254.08 1380.8L1218.88 1344.4H1298.08C1314.61 1344.4 1326.88 1340.8 1334.88 1333.6C1343.14 1326.4 1347.28 1316.4 1347.28 1303.6C1347.28 1290.53 1343.14 1280.4 1334.88 1273.2C1326.88 1266 1314.61 1262.4 1298.08 1262.4H1218.88L1254.08 1226V1380.8ZM1538.69 1308.4H1668.69V1367.6H1538.69V1308.4ZM1544.29 1418.8H1690.69V1480H1465.89V1200H1685.49V1261.2H1544.29V1418.8ZM1734.64 1480V1200H1862.64C1888.24 1200 1910.24 1204.13 1928.64 1212.4C1947.31 1220.67 1961.71 1232.67 1971.84 1248.4C1981.97 1263.87 1987.04 1282.27 1987.04 1303.6C1987.04 1324.67 1981.97 1342.93 1971.84 1358.4C1961.71 1373.6 1947.31 1385.33 1928.64 1393.6C1910.24 1401.6 1888.24 1405.6 1862.64 1405.6H1778.64L1813.84 1372.4V1480H1734.64ZM1907.84 1480L1838.24 1378H1922.64L1992.64 1480H1907.84ZM1813.84 1380.8L1778.64 1344.4H1857.84C1874.37 1344.4 1886.64 1340.8 1894.64 1333.6C1902.91 1326.4 1907.04 1316.4 1907.04 1303.6C1907.04 1290.53 1902.91 1280.4 1894.64 1273.2C1886.64 1266 1874.37 1262.4 1857.84 1262.4H1778.64L1813.84 1226V1380.8Z"
     fill="#462255"
     id="path5" />
</svg>
