<svg width="980" height="1025" viewBox="0 0 980 1025" fill="none" xmlns="http://www.w3.org/2000/svg">
<path d="M754.242 219.209C703.871 198.213 636.669 206.613 636.669 206.613C652.4 204.105 664.481 201.133 673.581 197.863C693.034 193.627 715.727 189.319 729.988 188.754C729.988 188.754 698.782 165.475 677.375 151.348C674.702 149.518 671.967 147.77 669.18 146.135C665.767 144.038 662.836 142.382 660.821 141.519C630.376 125.777 591.552 122.631 562.135 147.811C532.75 173.002 616.743 206.603 616.743 206.603C589.444 219.198 569.507 254.877 569.507 254.877C472.96 244.399 460.344 271.677 460.344 271.677C454.042 256.984 428.851 252.789 382.685 238.097C336.509 223.393 366.214 194.008 366.214 194.008C408.524 185.607 435.143 154.124 435.143 154.124C439.349 131.041 424.666 114.241 363.787 114.241C354.831 114.241 347.182 115.176 340.427 116.647C339.984 116.75 339.635 116.688 339.172 116.832C338.853 116.924 338.524 117.058 338.206 117.171C325.734 120.235 316.881 125.355 310.732 130.897C290.014 144.624 274.16 161.897 274.16 161.897C288.534 165.496 308.419 172.693 324.099 178.739C336.828 184.62 349.094 188.754 349.094 188.754C306.054 173.012 268.258 175.12 218.935 194.018C169.613 212.916 158.056 304.23 168.564 443.807C179.062 583.415 247.283 684.177 273.532 706.211C283.321 714.437 294.148 715.64 303.854 713.923H303.864C305.088 713.707 306.26 713.409 307.442 713.111C314.434 711.661 330.042 709.203 338.853 713.923C338.853 713.923 339.326 711.866 333.363 699.919C299.772 635.883 273.543 510.372 273.543 510.372C336.519 670.955 366.111 745.663 397.594 766.648C429.077 787.634 456.581 772.756 490.172 778C523.763 783.233 574.762 792.888 608.353 745.653C641.933 698.428 662.939 541.022 662.939 541.022C656.647 603.999 640.884 715.65 640.884 715.65L636.689 727.824C636.689 727.824 651.65 720.431 677.478 719.773C679.102 719.763 680.717 719.763 682.269 719.67C682.639 719.67 682.958 719.629 683.339 719.65L682.917 719.609C728.579 716.791 738.1 680.928 761.594 605.438C790.97 510.968 793.088 475.28 808.829 375.566C824.581 275.883 804.644 240.194 754.242 219.209Z" fill="#39B49F"/>
<path d="M389.782 205.553C389.782 205.553 383.49 218.149 408.67 224.441C433.861 230.744 446.466 236.245 451.186 241.766C455.905 247.288 460.635 237.828 467.709 235.474C474.793 233.109 511.006 230.754 531.477 233.9C551.928 237.047 552.709 236.255 559.023 229.181C565.325 222.097 596.819 214.221 569.263 205.564C541.708 196.906 518.882 168.569 534.624 122.126C550.365 75.6825 563.968 63.8685 580.388 58.3677C596.819 52.8566 624.59 26.8742 580.388 13.4975C536.197 0.100136 503.531 -13.2869 489.558 26.0722C475.585 65.4314 477.95 95.3415 461.416 135.492C444.883 175.643 428.35 196.896 389.782 205.553Z" fill="#49416D"/>
<path d="M137.31 915.039C137.31 924.393 135.163 932.979 130.87 940.799C126.577 948.466 119.983 954.676 111.09 959.429C102.197 964.183 91.1567 966.559 77.97 966.559H53.59V1024.52H14.26V863.059H77.97C90.85 863.059 101.737 865.283 110.63 869.729C119.523 874.176 126.193 880.309 130.64 888.129C135.087 895.949 137.31 904.919 137.31 915.039ZM74.98 935.279C82.4933 935.279 88.09 933.516 91.77 929.989C95.45 926.463 97.29 921.479 97.29 915.039C97.29 908.599 95.45 903.616 91.77 900.089C88.09 896.563 82.4933 894.799 74.98 894.799H53.59V935.279H74.98ZM240.125 1024.52L206.545 963.569H197.115V1024.52H157.785V863.059H223.795C236.522 863.059 247.332 865.283 256.225 869.729C265.272 874.176 272.019 880.309 276.465 888.129C280.912 895.796 283.135 904.383 283.135 913.889C283.135 924.623 280.069 934.206 273.935 942.639C267.955 951.073 259.062 957.053 247.255 960.579L284.515 1024.52H240.125ZM197.115 935.739H221.495C228.702 935.739 234.069 933.976 237.595 930.449C241.275 926.923 243.115 921.939 243.115 915.499C243.115 909.366 241.275 904.536 237.595 901.009C234.069 897.483 228.702 895.719 221.495 895.719H197.115V935.739ZM347.154 894.569V927.229H399.824V957.589H347.154V993.009H406.724V1024.52H307.824V863.059H406.724V894.569H347.154ZM555.308 915.039C555.308 924.393 553.161 932.979 548.868 940.799C544.575 948.466 537.981 954.676 529.088 959.429C520.195 964.183 509.155 966.559 495.968 966.559H471.588V1024.52H432.258V863.059H495.968C508.848 863.059 519.735 865.283 528.628 869.729C537.521 874.176 544.191 880.309 548.638 888.129C553.085 895.949 555.308 904.919 555.308 915.039ZM492.978 935.279C500.491 935.279 506.088 933.516 509.768 929.989C513.448 926.463 515.288 921.479 515.288 915.039C515.288 908.599 513.448 903.616 509.768 900.089C506.088 896.563 500.491 894.799 492.978 894.799H471.588V935.279H492.978ZM698.833 915.039C698.833 924.393 696.687 932.979 692.393 940.799C688.1 948.466 681.507 954.676 672.613 959.429C663.72 964.183 652.68 966.559 639.493 966.559H615.113V1024.52H575.783V863.059H639.493C652.373 863.059 663.26 865.283 672.153 869.729C681.047 874.176 687.717 880.309 692.163 888.129C696.61 895.949 698.833 904.919 698.833 915.039ZM636.503 935.279C644.017 935.279 649.613 933.516 653.293 929.989C656.973 926.463 658.813 921.479 658.813 915.039C658.813 908.599 656.973 903.616 653.293 900.089C649.613 896.563 644.017 894.799 636.503 894.799H615.113V935.279H636.503ZM758.639 894.569V927.229H811.309V957.589H758.639V993.009H818.209V1024.52H719.309V863.059H818.209V894.569H758.639ZM926.082 1024.52L892.502 963.569H883.072V1024.52H843.742V863.059H909.752C922.479 863.059 933.289 865.283 942.182 869.729C951.229 874.176 957.976 880.309 962.422 888.129C966.869 895.796 969.092 904.383 969.092 913.889C969.092 924.623 966.026 934.206 959.892 942.639C953.912 951.073 945.019 957.053 933.212 960.579L970.472 1024.52H926.082ZM883.072 935.739H907.452C914.659 935.739 920.026 933.976 923.552 930.449C927.232 926.923 929.072 921.939 929.072 915.499C929.072 909.366 927.232 904.536 923.552 901.009C920.026 897.483 914.659 895.719 907.452 895.719H883.072V935.739Z" fill="#49416D"/>
</svg>
